<?xml version="1.0" encoding="utf-8"?>
<!-- Generator: Adobe Illustrator 26.0.1, SVG Export Plug-In . SVG Version: 6.00 Build 0)  -->
<svg version="1.1" id="Calque_1" xmlns="http://www.w3.org/2000/svg" xmlns:xlink="http://www.w3.org/1999/xlink" x="0px" y="0px"
	 viewBox="0 0 196 34" style="enable-background:new 0 0 196 34;" xml:space="preserve">
<style type="text/css">
	.st0{fill:#FFFFFF;}
	.st1{fill:#FF9999;}
	.st2{fill:#FF5060;}
	.st3{fill:#2404AA;}
	.st4{fill:#0034FE;}
</style>
<path class="st0" d="M34.6,29.1c0-0.9-0.3-1.7-0.8-2.5L27,16.4l4.6-7.1l0-0.1v0l0,0l1.2-1.9c0.5-0.7,0.7-1.6,0.8-2.4
	c0-0.8-0.2-1.6-0.5-2.3c-0.4-0.7-0.9-1.3-1.6-1.8c-0.7-0.5-1.5-0.7-2.4-0.8c-0.1,0-0.1,0-0.2,0L5.1,0C4.5,0,3.9,0.1,3.3,0.4
	C2.7,0.6,2.2,1,1.8,1.4c-0.4,0.4-0.8,1-1,1.5C0.5,3.5,0.4,4.1,0.4,4.8l0.1,13.8l0,3.4l0,0l0,7.4c0,0.6,0.1,1.2,0.4,1.8
	c0.2,0.6,0.6,1.1,1,1.5c0.4,0.4,1,0.8,1.5,1C4.1,33.9,4.7,34,5.3,34l6.6,0l3.3,0l10,0h3.4h1.2c0.9,0,1.8-0.2,2.5-0.7
	c0.7-0.4,1.3-1.1,1.7-1.8C34.4,30.8,34.6,29.9,34.6,29.1z"/>
<path class="st1" d="M32.2,27.7l-7.5-11.3l-6.6,10l6.1,5.2c0.3,0.2,0.6,0.4,1,0.4l4.7,0C32.1,32,33.4,29.6,32.2,27.7z"/>
<path class="st2" d="M31.3,6.3l-1.2,1.9l0,0.1L18.1,26.5L7.8,17.9c-0.1-0.1-0.2-0.2-0.3-0.3c-0.1-0.1-0.1-0.3-0.1-0.4
	c0-0.1,0-0.3,0.1-0.4c0.1-0.1,0.1-0.2,0.2-0.3l3.2-2.8l6.9-3.9l11.7-6.6c0.1-0.1,0.1-0.2,0.1-0.4c0-0.1,0-0.3-0.1-0.4
	c-0.1-0.1-0.1-0.2-0.2-0.3C29.4,2.1,29.2,2,29.1,2C31.2,2.1,32.4,4.5,31.3,6.3z"/>
<path class="st3" d="M15.8,30.8L6.2,17.5C6.1,17.4,6,17.2,6,17c0-0.2,0.1-0.4,0.2-0.6l-3.7,2.1l0.1,10.7c0,0.7,0.3,1.4,0.8,1.9
	c0.5,0.5,1.2,0.8,2,0.8l9.8,0c0.1,0,0.3,0,0.4-0.1c0.1-0.1,0.2-0.2,0.3-0.3c0.1-0.1,0.1-0.3,0.1-0.4C15.9,31.1,15.8,30.9,15.8,30.8z
	"/>
<path class="st4" d="M29.6,3.2L17.9,9.8L11,13.7l-8.6,4.9L2.4,4.8c0-0.4,0.1-0.7,0.2-1.1C2.7,3.4,2.9,3,3.2,2.8s0.6-0.5,0.9-0.6
	C4.4,2,4.8,2,5.1,2l23.8,0c0,0,0.1,0,0.2,0h0c0.1,0,0.3,0.1,0.4,0.1c0.1,0.1,0.2,0.2,0.2,0.3c0.1,0.1,0.1,0.3,0.1,0.4
	C29.8,2.9,29.7,3.1,29.6,3.2z"/>
<path d="M46.3,27V9.5h3.8v7.2l6.9-7.2h4.8l-6.7,6.7L62.2,27h-4.5l-5.2-8.1l-2.4,2.4V27H46.3z M68.9,27.2c-4.2,0-6.9-2.9-6.9-7.1
	c0-4.3,2.7-7.2,6.9-7.2c4.2,0,6.9,2.9,6.9,7.2S73.1,27.2,68.9,27.2z M68.9,24.2c2,0,3.2-1.5,3.2-4.1c0-2.6-1.2-4.1-3.2-4.1
	c-2,0-3.2,1.5-3.2,4.1C65.7,22.7,66.9,24.2,68.9,24.2z M78.1,27V13.2h3.4l0.1,1.9c1.1-1.5,2.4-2.1,4.2-2.1c2.8,0,4.7,1.7,4.7,4.8V27
	h-3.7v-8.7c0-1.3-0.8-2.1-2.3-2.1c-1.5,0-2.6,1-2.7,2.6V27H78.1z M93.4,27V8h3.7v7c0.8-1.4,2.3-2.1,4-2.1c3.6,0,6,2.8,6,7.2
	c0,4.3-2.3,7.1-5.9,7.1c-1.9,0-3.5-0.8-4.2-2.3l-0.2,2H93.4z M97.1,20.6c0,2.3,1.2,3.6,3.1,3.6c2,0,3.1-1.4,3.1-4.1
	c0-2.7-1.1-4.2-3.1-4.2c-2,0-3.1,1.3-3.1,3.7V20.6z M109.8,11.3V7.9h3.8v3.3H109.8z M109.8,27V13.2h3.7V27H109.8z M117.1,27V13.2
	h3.4l0.1,1.9c1.1-1.5,2.4-2.1,4.2-2.1c2.8,0,4.7,1.7,4.7,4.8V27h-3.7v-8.7c0-1.3-0.8-2.1-2.3-2.1c-1.5,0-2.6,1-2.7,2.6V27H117.1z
	 M136.3,27.2c-2.8,0-4.6-1.6-4.6-3.9c0-2.4,1.7-3.8,4.2-4.2l3-0.5c1-0.2,1.4-0.6,1.4-1.4c0-1-0.7-1.5-2.1-1.5
	c-1.6,0-2.5,0.7-2.5,2.2l-3.4-0.4c0-2.9,2.4-4.5,6-4.5c4,0,5.8,1.7,5.8,4.4v6c0,0.8,0.4,1,0.8,1c0.2,0,0.3,0,0.4,0h0.1v2.6
	c-0.5,0.2-1.2,0.3-1.8,0.3c-1.5,0-2.6-0.6-2.8-1.9l0-0.3C140,26.4,138.4,27.2,136.3,27.2z M137.5,24.6c1.6,0,2.7-0.8,3-2.1v-1.9
	c-0.3,0.2-0.8,0.3-1.4,0.4l-1.8,0.3c-1.3,0.2-1.7,0.9-1.7,1.6C135.5,24,136.3,24.6,137.5,24.6z M149.4,27l-3.9-13.8h3.9l2.1,10
	l2.2-10h3.9l2.2,9.8l2.1-9.8h3.8L161.8,27h-4.2l-2-9.1l-2,9.1H149.4z M171.1,27.2c-2.8,0-4.6-1.6-4.6-3.9c0-2.4,1.7-3.8,4.2-4.2
	l3-0.5c1-0.2,1.4-0.6,1.4-1.4c0-1-0.7-1.5-2.1-1.5c-1.6,0-2.5,0.7-2.5,2.2l-3.4-0.4c0-2.9,2.4-4.5,6-4.5c4,0,5.8,1.7,5.8,4.4v6
	c0,0.8,0.4,1,0.8,1c0.2,0,0.3,0,0.4,0h0.1v2.6c-0.5,0.2-1.2,0.3-1.8,0.3c-1.5,0-2.6-0.6-2.8-1.9l0-0.3
	C174.7,26.4,173.1,27.2,171.1,27.2z M172.2,24.6c1.6,0,2.7-0.8,3-2.1v-1.9c-0.3,0.2-0.8,0.3-1.4,0.4l-1.8,0.3
	c-1.3,0.2-1.7,0.9-1.7,1.6C170.2,24,171,24.6,172.2,24.6z M181.9,27V8h3.7v10.2l4.9-5.1h4.7l-5.3,5.1l5.7,8.7h-4.4l-3.8-6.2
	l-1.7,1.7V27H181.9z"/>
</svg>
