<svg width="196" height="34" viewBox="0 0 196 34" fill="none" xmlns="http://www.w3.org/2000/svg">
<path d="M34.618 29.1204C34.5908 28.2337 34.3142 27.3725 33.8197 26.6353L27.0238 16.4038L31.6686 9.2864L31.7085 9.22533V9.22139L31.711 9.21794L32.9356 7.32629C33.4032 6.6072 33.6664 5.7748 33.6969 4.91802C33.722 4.11508 33.5432 3.31884 33.1774 2.60332C32.8115 1.8883 32.2711 1.27684 31.6059 0.825441C30.9055 0.352603 30.0906 0.0763673 29.2465 0.0256391C29.171 0.0192368 29.0985 0.0162819 29.023 0.0162819L5.13265 2.97286e-05C4.50586 -0.002194 3.88491 0.120356 3.30613 0.360513C2.72734 0.60067 2.20234 0.953612 1.76182 1.3987C1.31849 1.84125 0.967984 2.36757 0.730782 2.94689C0.493579 3.52622 0.374443 4.14692 0.380335 4.77274L0.476053 18.5624L0.499244 21.9153L0.506149 21.9113L0.550555 29.276C0.553183 29.896 0.678347 30.5094 0.91888 31.081C1.15941 31.6527 1.51058 32.1713 1.95227 32.6072C2.39136 33.0454 2.91279 33.3928 3.48666 33.6294C4.06053 33.8661 4.67555 33.9873 5.29646 33.9862L11.8625 33.9906L15.1396 33.9931L25.1864 34H28.6313H29.8647C30.7538 34.003 31.6259 33.7562 32.381 33.2878C33.0854 32.8473 33.6621 32.2307 34.0541 31.4991C34.4463 30.7687 34.6407 29.9488 34.618 29.1204Z" fill="white"/>
<path d="M32.1768 27.7222L24.6738 16.4679L18.0698 26.5146L24.2194 31.6705C24.4913 31.8988 24.8351 32.0242 25.1904 32.0246L29.8672 32.0276C32.0811 32.029 33.4068 29.5641 32.1768 27.7222Z" fill="#FF9999"/>
<path d="M31.2778 6.25462L30.0552 8.14479L30.0148 8.20685L18.0674 26.5146L7.80488 17.9113C7.69833 17.8221 7.61254 17.7108 7.55346 17.5851C7.49438 17.4594 7.46344 17.3224 7.46278 17.1836C7.46212 17.0447 7.49177 16.9074 7.54965 16.7812C7.60754 16.655 7.69228 16.5428 7.79798 16.4526L11.0282 13.6946L17.8863 9.81581L29.6294 3.16967C29.7059 3.06374 29.7533 2.9397 29.7669 2.80985C29.7805 2.68 29.7599 2.54885 29.7071 2.4294C29.6543 2.30995 29.5712 2.20635 29.4659 2.12887C29.3606 2.05139 29.2369 2.00273 29.1069 1.9877C31.2083 2.10048 32.4403 4.45704 31.2778 6.25462Z" fill="#FF5060"/>
<path d="M15.7514 30.8323L6.19739 17.5479C6.07984 17.3851 6.01659 17.1896 6.01659 16.9889C6.01659 16.7883 6.07984 16.5927 6.19739 16.4299L2.44763 18.5447L2.52213 29.2598C2.52721 29.9908 2.82158 30.6902 3.34107 31.2055C3.86057 31.7208 4.56307 32.0103 5.29547 32.0108L15.1386 32.0177C15.2768 32.0182 15.4125 31.9806 15.5307 31.909C15.6488 31.8375 15.7449 31.7347 15.8083 31.6121C15.8717 31.4895 15.8999 31.3518 15.8898 31.2142C15.8798 31.0766 15.8319 30.9444 15.7514 30.8323Z" fill="#2404AA"/>
<path d="M29.6294 3.16968L17.8897 9.81385L11.0316 13.6927L2.45113 18.5447L2.35541 4.755C2.35294 4.38945 2.42296 4.02702 2.56144 3.68859C2.69992 3.35017 2.90413 3.04245 3.16229 2.78316C3.42045 2.52387 3.72746 2.31813 4.06564 2.17781C4.40381 2.03748 4.76646 1.96534 5.13269 1.96555L28.9496 1.9818C28.9989 1.9818 29.0507 1.9818 29.101 1.98574H29.1079C29.2381 2.00072 29.3621 2.04947 29.4675 2.12713C29.573 2.20478 29.6562 2.30865 29.7089 2.42838C29.7617 2.54812 29.7821 2.67955 29.7681 2.8096C29.7542 2.93966 29.7064 3.0638 29.6294 3.16968Z" fill="#0034FE"/>
<path d="M46.3479 27V9.504H50.1399V16.752L57.0759 9.504H61.8759L55.1319 16.2L62.1879 27H57.6999L52.5159 18.864L50.1399 21.24V27H46.3479ZM68.9422 27.24C64.7182 27.24 62.0062 24.384 62.0062 20.112C62.0062 15.792 64.7422 12.936 68.9422 12.936C73.1182 12.936 75.8302 15.792 75.8302 20.088C75.8302 24.384 73.1182 27.24 68.9422 27.24ZM68.9182 24.216C70.9342 24.216 72.1342 22.704 72.1342 20.088C72.1342 17.448 70.9342 15.96 68.9422 15.96C66.9022 15.96 65.7022 17.472 65.7022 20.088C65.7022 22.728 66.9022 24.216 68.9182 24.216ZM78.0755 27V13.176H81.5075L81.6515 15.048C82.7075 13.584 84.0035 12.936 85.8515 12.936C88.6835 12.936 90.5075 14.592 90.5075 17.688V27H86.7875V18.288C86.7875 16.944 85.9715 16.2 84.5315 16.2C83.0675 16.2 81.9155 17.208 81.8195 18.84V27H78.0755ZM93.3802 27V8.04H97.1242V15.048C97.9402 13.632 99.4042 12.936 101.156 12.936C104.78 12.936 107.108 15.744 107.108 20.16C107.108 24.504 104.852 27.24 101.252 27.24C99.3802 27.24 97.7482 26.424 97.0282 24.984L96.8122 27H93.3802ZM97.1242 20.616C97.1242 22.896 98.2762 24.192 100.22 24.192C102.212 24.192 103.316 22.752 103.316 20.136C103.316 17.472 102.236 15.984 100.22 15.984C98.2522 15.984 97.1242 17.328 97.1242 19.68V20.616ZM109.809 11.256V7.944H113.577V11.256H109.809ZM109.833 27V13.176H113.553V27H109.833ZM117.052 27V13.176H120.484L120.628 15.048C121.684 13.584 122.98 12.936 124.828 12.936C127.66 12.936 129.484 14.592 129.484 17.688V27H125.764V18.288C125.764 16.944 124.948 16.2 123.508 16.2C122.044 16.2 120.892 17.208 120.796 18.84V27H117.052ZM136.317 27.24C133.485 27.24 131.733 25.68 131.733 23.304C131.733 20.88 133.413 19.512 135.957 19.08L138.957 18.576C139.989 18.384 140.325 17.952 140.325 17.184C140.325 16.224 139.653 15.696 138.189 15.696C136.557 15.696 135.645 16.392 135.645 17.856L132.237 17.472C132.213 14.616 134.589 12.936 138.261 12.936C142.269 12.936 144.069 14.616 144.069 17.376V23.328C144.069 24.144 144.453 24.312 144.885 24.312C145.077 24.312 145.197 24.288 145.293 24.264H145.437V26.856C144.981 27.096 144.213 27.168 143.637 27.168C142.101 27.168 141.069 26.52 140.853 25.224L140.829 24.96C140.013 26.4 138.357 27.24 136.317 27.24ZM137.469 24.552C139.053 24.552 140.157 23.784 140.421 22.464V20.592C140.085 20.76 139.605 20.88 139.005 21L137.205 21.336C135.909 21.576 135.501 22.248 135.501 22.968C135.501 23.976 136.269 24.552 137.469 24.552ZM149.415 27L145.551 13.176H149.463L151.551 23.184L153.711 13.176H157.575L159.807 22.968L161.871 13.176H165.639L161.775 27H157.623L155.607 17.856L153.639 27H149.415ZM171.051 27.24C168.219 27.24 166.467 25.68 166.467 23.304C166.467 20.88 168.147 19.512 170.691 19.08L173.691 18.576C174.723 18.384 175.059 17.952 175.059 17.184C175.059 16.224 174.387 15.696 172.923 15.696C171.291 15.696 170.379 16.392 170.379 17.856L166.971 17.472C166.947 14.616 169.323 12.936 172.995 12.936C177.003 12.936 178.803 14.616 178.803 17.376V23.328C178.803 24.144 179.187 24.312 179.619 24.312C179.811 24.312 179.931 24.288 180.027 24.264H180.171V26.856C179.715 27.096 178.947 27.168 178.371 27.168C176.835 27.168 175.803 26.52 175.587 25.224L175.563 24.96C174.747 26.4 173.091 27.24 171.051 27.24ZM172.203 24.552C173.787 24.552 174.891 23.784 175.155 22.464V20.592C174.819 20.76 174.339 20.88 173.739 21L171.939 21.336C170.643 21.576 170.235 22.248 170.235 22.968C170.235 23.976 171.003 24.552 172.203 24.552ZM181.95 27V8.04H185.694V18.264L190.638 13.176H195.294L189.99 18.264L195.678 27H191.238L187.398 20.76L185.694 22.416V27H181.95Z" fill="white"/>
</svg>
