<svg width="22" height="20" viewBox="0 0 22 20" fill="none" xmlns="http://www.w3.org/2000/svg">
<path d="M21.0694 17.1296C21.0534 16.608 20.8906 16.1015 20.5998 15.6678L16.6022 9.64932L19.3344 5.46259L19.3579 5.42666V5.42435L19.3594 5.42232L20.0797 4.30958C20.3548 3.88659 20.5096 3.39694 20.5275 2.89295C20.5423 2.42063 20.4372 1.95226 20.2219 1.53137C20.0067 1.11077 19.6888 0.751084 19.2976 0.485553C18.8855 0.207413 18.4062 0.044922 17.9097 0.0150818C17.8653 0.0113158 17.8226 0.00957756 17.7782 0.00957756L3.72505 1.74874e-05C3.35634 -0.00129059 2.99108 0.0707978 2.65062 0.212067C2.31016 0.353335 2.00133 0.560948 1.74221 0.822763C1.48142 1.08309 1.27524 1.39269 1.13571 1.73347C0.99618 2.07424 0.9261 2.43937 0.929566 2.80749L0.98587 10.9191L0.999512 12.8913L1.00357 12.889L1.0297 17.2212C1.03124 17.5859 1.10487 17.9467 1.24636 18.283C1.38785 18.6192 1.59442 18.9243 1.85423 19.1807C2.11252 19.4385 2.41925 19.6428 2.75682 19.782C3.09439 19.9212 3.45616 19.9925 3.8214 19.9919L7.68377 19.9945L9.61146 19.9959L15.5214 20H17.5478H18.2733C18.7963 20.0018 19.3093 19.8566 19.7535 19.5811C20.1678 19.322 20.5071 18.9592 20.7377 18.5289C20.9684 18.0992 21.0827 17.6169 21.0694 17.1296Z" fill="white"/>
<path d="M19.6333 16.3072L15.2198 9.68695L11.3351 15.5968L14.9525 18.6297C15.1124 18.764 15.3147 18.8377 15.5237 18.838L18.2747 18.8397C19.577 18.8406 20.3568 17.3906 19.6333 16.3072Z" fill="#FF9999"/>
<path d="M19.1046 3.6792L18.3854 4.79107L18.3616 4.82757L11.3337 15.5969L5.29695 10.5361C5.23427 10.4836 5.1838 10.4181 5.14905 10.3442C5.1143 10.2703 5.0961 10.1897 5.09571 10.108C5.09532 10.0263 5.11276 9.94556 5.14681 9.8713C5.18086 9.79705 5.23071 9.73109 5.29288 9.67801L7.19301 8.05569L11.2272 5.77402L18.1349 1.86453C18.1799 1.80222 18.2078 1.72925 18.2158 1.65287C18.2238 1.57649 18.2117 1.49934 18.1806 1.42907C18.1496 1.35881 18.1006 1.29787 18.0387 1.25229C17.9768 1.20672 17.904 1.17809 17.8276 1.16925C19.0636 1.23559 19.7883 2.6218 19.1046 3.6792Z" fill="#FF5060"/>
<path d="M9.97135 18.1366L4.35137 10.3223C4.28222 10.2265 4.24502 10.1115 4.24502 9.99348C4.24502 9.87545 4.28222 9.76042 4.35137 9.66467L2.14563 10.9086L2.18945 17.2116C2.19244 17.6417 2.3656 18.0531 2.67118 18.3562C2.97677 18.6593 3.39001 18.8296 3.82083 18.8299L9.61089 18.8339C9.6922 18.8342 9.77201 18.8121 9.84152 18.77C9.91104 18.7279 9.96755 18.6675 10.0048 18.5954C10.0421 18.5232 10.0587 18.4422 10.0528 18.3613C10.0469 18.2803 10.0187 18.2026 9.97135 18.1366Z" fill="#2404AA"/>
<path d="M18.1349 1.8645L11.2292 5.77284L7.19502 8.05451L2.14765 10.9086L2.09135 2.79705C2.08989 2.58201 2.13108 2.36882 2.21254 2.16975C2.294 1.97068 2.41412 1.78966 2.56598 1.63714C2.71784 1.48461 2.89843 1.36359 3.09736 1.28105C3.29629 1.1985 3.50961 1.15607 3.72504 1.15619L17.735 1.16575C17.764 1.16575 17.7945 1.16575 17.8241 1.16807H17.8281C17.9047 1.17688 17.9776 1.20556 18.0396 1.25124C18.1017 1.29692 18.1506 1.35801 18.1817 1.42845C18.2127 1.49888 18.2247 1.57619 18.2165 1.65269C18.2083 1.7292 18.1801 1.80222 18.1349 1.8645Z" fill="#0034FE"/>
</svg>
