<?xml version="1.0" encoding="utf-8"?>
<!-- Generator: Adobe Illustrator 26.0.1, SVG Export Plug-In . SVG Version: 6.00 Build 0)  -->
<svg version="1.1" id="Calque_1" xmlns="http://www.w3.org/2000/svg" xmlns:xlink="http://www.w3.org/1999/xlink" x="0px" y="0px"
	 viewBox="0 0 17 41" style="enable-background:new 0 0 17 41;" xml:space="preserve">
<style type="text/css">
	.st0{clip-path:url(#SVGID_00000108286967929188734220000015679939895684262785_);}
	.st1{fill:#FFFFFF;}
</style>
<g>
	<defs>
		<rect id="SVGID_1_" y="1" width="17" height="40"/>
	</defs>
	<clipPath id="SVGID_00000125581633979154825760000002742625355848273301_">
		<use xlink:href="#SVGID_1_"  style="overflow:visible;"/>
	</clipPath>
	<g style="clip-path:url(#SVGID_00000125581633979154825760000002742625355848273301_);">
		<path d="M0.1,32.5L0.1,32.5c-4.3,0-4.3,4-8.5,4s-4.2-4-8.5-4v34.1c4.2,0,4.2,4,8.5,4c4.2,0,4.2-4,8.4-4h0c2.1,0,3.1,0.9,4.1,1.9
			l0.2,0.2c1,1,2.1,1.9,4.1,1.9c2.1,0,3.1-0.9,4.1-1.9l0.2-0.2c1-1,2.1-1.9,4.1-1.9c4.2,0,4.2,4,8.5,4s4.2-4,8.5-4V32.5
			c-4.2,0-4.2,4-8.5,4c-4.2,0-4.2-4-8.4-4h0c-4.2,0-4.2,4-8.5,4c-2.1,0-3.1-0.9-4.1-1.9l-0.2-0.2C3.1,33.5,2.1,32.5,0.1,32.5z"/>
	</g>
</g>
<rect class="st1" width="17" height="29.7"/>
</svg>
