<svg width="17" height="41" viewBox="0 0 17 41" fill="none" xmlns="http://www.w3.org/2000/svg">
<g clip-path="url(#clip0_3311_301)">
<path d="M0.0552211 31.9264L0.00736951 31.9264C-4.24175 31.9264 -4.24176 35.9264 -8.49088 35.9264C-12.74 35.9264 -12.74 31.9264 -16.9891 31.9264L-16.9891 66.0154C-12.74 66.0154 -12.74 70.0154 -8.49088 70.0154C-4.25872 70.0154 -4.24176 66.0464 -0.0425259 66.0154L0.00736653 66.0154C2.06509 66.0154 3.12634 66.9534 4.15671 67.9214L4.35621 68.1084C5.38557 69.0764 6.44685 70.0154 8.50558 70.0154C10.5633 70.0154 11.6246 69.0764 12.6549 68.1084L12.8544 67.9214C13.8838 66.9534 14.9451 66.0154 17.0038 66.0154C21.2529 66.0154 21.2529 70.0154 25.502 70.0154C29.7511 70.0154 29.7511 66.0154 34.0002 66.0154L34.0002 31.9264C29.7511 31.9264 29.7511 35.9264 25.502 35.9264C21.2699 35.9264 21.2529 31.9574 17.0537 31.9264L17.0038 31.9264C12.7547 31.9264 12.7547 35.9264 8.50558 35.9264C6.44686 35.9264 5.38557 34.9874 4.35621 34.0194L4.15671 33.8324C3.13533 32.8724 2.08203 31.9404 0.0552211 31.9264Z" fill="black"/>
<path fill-rule="evenodd" clip-rule="evenodd" d="M0.0562111 32.4051L0.106102 32.4051L0.154956 32.4061L0.203844 32.4081L0.251724 32.4091L0.299606 32.4111L0.346483 32.4141L0.39336 32.4161L0.440237 32.4191L0.486108 32.423L0.532013 32.426L0.577884 32.43L0.622753 32.435L0.667652 32.439L0.712549 32.444L0.756412 32.45L0.813274 32.457L0.855159 32.463L0.897073 32.4689L0.937954 32.4749L0.978864 32.4819L1.01874 32.4889L1.05667 32.4959C1.11153 32.5058 1.16638 32.5168 1.21925 32.5288L1.26013 32.5377L1.30003 32.5467L1.33994 32.5567L1.37884 32.5657L1.41774 32.5766L1.45662 32.5866L1.49552 32.5976L1.53344 32.6086L1.57134 32.6195L1.60924 32.6305L1.64613 32.6425L1.699 32.6594L1.73392 32.6714L1.76883 32.6834L1.80375 32.6954L1.83866 32.7083L1.87257 32.7213L1.90648 32.7343L1.94039 32.7472L1.9743 32.7602L2.00523 32.7732L2.04413 32.7891L2.07405 32.8021L2.10796 32.8171C2.12691 32.825 2.14687 32.834 2.16583 32.843L2.1738 32.846C2.19175 32.8549 2.2107 32.8629 2.22865 32.8719L2.23864 32.8769L2.29848 32.9058L2.32241 32.9178L2.33936 32.9268L2.3603 32.9367L2.38624 32.9507L2.4042 32.9597L2.42216 32.9686L2.4491 32.9836L2.46803 32.9936L2.48301 33.0016L2.51192 33.0185L2.54285 33.0355L2.59171 33.0634L2.6027 33.0694L2.65356 33.0993L2.66053 33.1043L2.7184 33.1402L2.77425 33.1741C2.81315 33.2 2.85206 33.225 2.89096 33.2509L2.9448 33.2878L2.99969 33.3257L3.05353 33.3646L3.10741 33.4035L3.16126 33.4434L3.21413 33.4843L3.266 33.5242L3.28296 33.5372L3.31787 33.5661L3.33681 33.5801L3.36974 33.607L3.38968 33.624L3.42061 33.6489L3.44353 33.6669L3.47147 33.6908L3.4954 33.7108L3.52234 33.7337L3.54827 33.7556L3.5722 33.7766L3.60014 33.8005L3.62209 33.8195L3.65201 33.8454L3.67195 33.8623L3.72083 33.9062L3.77069 33.9501L3.77867 33.9571C3.8066 33.983 3.83453 34.008 3.86146 34.0329L3.86746 34.0379L3.92529 34.0908L3.9642 34.1277L4.05895 34.2144C4.09187 34.2454 4.12378 34.2753 4.1567 34.3062L4.3562 34.4928L4.45394 34.5845L4.55268 34.6763L4.5876 34.7092L4.65243 34.767L4.73821 34.8448L4.77313 34.8767L4.80305 34.9037L4.85391 34.9476L4.87486 34.9665L4.90478 34.9925L4.92673 35.0104L4.95567 35.0363L4.97762 35.0553L5.00754 35.0802L5.02946 35.0992L5.05941 35.1231L5.08133 35.1421L5.11125 35.167L5.1342 35.185L5.16412 35.2099L5.18708 35.2279L5.218 35.2518L5.24092 35.2698L5.27084 35.2937L5.2948 35.3116L5.32573 35.3356L5.34865 35.3525L5.37958 35.3765L5.4035 35.3934L5.43543 35.4174L5.45838 35.4343L5.49129 35.4573L5.51424 35.4742L5.54715 35.4972L5.57107 35.5131L5.60401 35.5361L5.62793 35.552L5.66184 35.575L5.68479 35.5899L5.72071 35.6129L5.74363 35.6278L5.78056 35.6508L5.8025 35.6647L5.86235 35.7007L5.92219 35.7365L5.98304 35.7715L6.04486 35.8064L6.10772 35.8393L6.17155 35.8722L6.23538 35.9041L6.29024 35.93L6.29922 35.9341L6.35507 35.96L6.36405 35.965L6.42091 35.9899L6.42989 35.9939L6.48675 36.0178L6.51567 36.0298L6.54958 36.0438L6.5845 36.0567L6.61941 36.0707L6.65432 36.0837L6.68921 36.0966L6.72513 36.1096L6.76104 36.1216L6.79693 36.1345L6.83386 36.1465L6.86974 36.1585L6.90667 36.1695L6.94356 36.1804L6.98146 36.1914L7.01939 36.2024L7.05728 36.2134L7.09518 36.2233L7.13408 36.2333L7.17298 36.2433L7.21189 36.2523L7.25079 36.2612L7.29069 36.2702L7.33057 36.2792L7.37048 36.2871L7.41136 36.2951L7.45227 36.3031L7.49315 36.3101L7.53406 36.3171L7.57594 36.3241L7.61883 36.331L7.66072 36.337L7.70361 36.343L7.7465 36.349L7.79039 36.354L7.81036 36.356L7.85422 36.361L7.89912 36.3659L7.94301 36.3699L7.98788 36.3739L8.03378 36.3769L8.07865 36.3809L8.12553 36.3839L8.17143 36.3859L8.21831 36.3879L8.26519 36.3899L8.31206 36.3919L8.35994 36.3929L8.40783 36.3939L8.45668 36.3949L8.50557 36.3949C12.7547 36.3949 12.7547 32.4051 17.0038 32.4051L17.0537 32.4051C17.3958 32.4071 17.71 32.436 18.0012 32.4869L18.0012 32.4051C18.0012 31.8535 17.5544 31.4076 17.0038 31.4076C14.5471 31.4076 13.3003 32.5198 12.0714 33.6728C11.1757 34.5147 10.298 35.3974 8.50557 35.3974C6.71216 35.3974 5.83542 34.5147 4.93872 33.6728C3.71087 32.5198 2.46406 31.4076 0.00735632 31.4076C-0.543234 31.4076 -0.990088 31.8535 -0.990088 32.4051L-0.990088 32.4869C-0.68487 32.434 -0.354716 32.4051 0.00735624 32.4051L0.0562111 32.4051ZM8.55445 70.3968L8.50556 70.3968L8.4557 70.3968L8.40682 70.3957L8.35793 70.3947L8.30908 70.3937L8.2612 70.3918L8.21331 70.3897L8.16644 70.3878L8.11956 70.3848L8.07268 70.3818L8.02678 70.3788L7.98091 70.3748L7.93504 70.3708L7.89014 70.3668L7.84527 70.3618L7.80037 70.3568L7.75648 70.3519L7.71258 70.3459L7.66969 70.3399L7.62583 70.3339L7.58294 70.3269L7.54103 70.32L7.49914 70.313L7.44627 70.304L7.40639 70.296L7.36648 70.288L7.32658 70.28L7.28768 70.2721L7.24878 70.2631L7.20987 70.2541L7.17298 70.2451C7.14705 70.2381 7.12111 70.2322 7.09518 70.2252L7.05628 70.2142L7.01737 70.2042L6.97948 70.1933L6.94158 70.1823L6.90368 70.1703L6.86676 70.1583L6.82886 70.1474L6.79294 70.1344L6.75605 70.1224L6.72013 70.1095L6.68324 70.0965L6.64832 70.0836L6.61241 70.0696L6.57749 70.0566L6.54261 70.0426L6.50769 70.0287L6.48675 70.0197C6.4678 70.0117 6.44884 70.0037 6.42989 69.9958L6.42091 69.9918C6.40196 69.9828 6.383 69.9748 6.36405 69.9669L6.35507 69.9619C6.33612 69.9539 6.31717 69.9449 6.29921 69.9359L6.29023 69.9319C6.27228 69.924 6.25334 69.915 6.23538 69.906L6.23139 69.904L6.16857 69.8731L6.10772 69.8412C6.06582 69.8192 6.02393 69.7963 5.98304 69.7733L5.92417 69.7394L5.86533 69.7045L5.80649 69.6696L5.74862 69.6327L5.69176 69.5958L5.63493 69.5589L5.62196 69.5499L5.57907 69.521L5.5641 69.511L5.52322 69.4821L5.50724 69.4711L5.46833 69.4432L5.45138 69.4302L5.41449 69.4033L5.39455 69.3893L5.36061 69.3634L5.33967 69.3484L5.30676 69.3235L5.28481 69.3065L5.25389 69.2826L5.22996 69.2636L5.20104 69.2407L5.17608 69.2207L5.14917 69.1998L5.12324 69.1779L5.09828 69.1569L5.06936 69.134L5.04644 69.115L5.01649 69.0901L4.99555 69.0721L4.96465 69.0462L4.94468 69.0293L4.91278 69.0013L4.89482 68.9854L4.86091 68.9564L4.84493 68.9415L4.79507 68.8976L4.74521 68.8537L4.73821 68.8467C4.70929 68.8208 4.68036 68.7948 4.65243 68.7689L4.64744 68.7649L4.55569 68.6811L4.5497 68.6751L4.45296 68.5854L4.35619 68.4946L4.15669 68.3081L4.05895 68.2163L3.96021 68.1246L3.92432 68.0927L3.86045 68.0338L3.77468 67.956L3.73976 67.9241L3.70984 67.8981L3.65898 67.8532L3.63803 67.8353L3.60811 67.8094L3.58616 67.7904L3.55725 67.7645L3.5353 67.7465L3.50538 67.7216L3.48343 67.7026L3.45351 67.6777L3.43056 67.6588L3.40064 67.6348L3.37869 67.6159L3.34877 67.5919L3.32585 67.574L3.29492 67.549L3.27197 67.5311L3.24204 67.5072L3.21812 67.4892L3.18719 67.4662L3.16424 67.4483L3.13331 67.4244L3.10939 67.4074L3.07746 67.3844L3.05454 67.3675L3.0216 67.3436L2.99868 67.3276L2.96574 67.3047L2.94182 67.2877L2.90891 67.2648L2.88496 67.2488L2.85105 67.2269L2.82712 67.2109L2.79221 67.188L2.76926 67.174L2.73236 67.1501L2.71042 67.1371L2.65057 67.1002L2.59073 67.0643L2.52988 67.0294L2.46803 66.9955L2.4052 66.9616L2.34137 66.9296L2.27754 66.8977L2.22265 66.8708L2.21367 66.8668L2.15782 66.8409L2.14884 66.8369L2.09201 66.8119L2.08303 66.8079L2.02617 66.783L1.99725 66.772L1.96334 66.7581L1.92843 66.7441L1.89351 66.7311L1.8586 66.7172L1.82368 66.7042L1.78776 66.6912L1.75188 66.6793L1.71596 66.6673L1.67906 66.6553L1.64315 66.6434L1.60625 66.6314L1.56933 66.6204L1.53143 66.6095L1.49353 66.5985L1.45564 66.5885L1.41774 66.5785L1.37884 66.5675L1.33994 66.5586L1.30104 66.5486L1.26213 66.5396L1.22223 66.5307L1.18232 66.5227L1.14245 66.5137L1.10153 66.5057L1.06065 66.4987L1.01974 66.4907L0.977858 66.4838L0.936947 66.4768L0.894057 66.4708L0.852173 66.4648L0.809283 66.4588L0.766394 66.4528L0.7225 66.4479L0.702563 66.4449L0.658669 66.4399L0.6138 66.4359L0.569907 66.4319L0.524004 66.4279L0.479136 66.4239L0.433262 66.4209L0.38736 66.4179L0.341488 66.4149L0.294611 66.4129L0.247735 66.411L0.200858 66.41L0.152976 66.4079L0.105093 66.407L0.0562081 66.407L0.00735326 66.407L-0.0425373 66.407C-0.383663 66.409 -0.696851 66.4379 -0.987108 66.4878C-0.945215 67.0004 -0.516306 67.4044 0.00735318 67.4044C1.79976 67.4044 2.67749 68.2872 3.5732 69.129C4.80205 70.282 6.04886 71.3942 8.50556 71.3942C10.9623 71.3942 12.2091 70.282 13.4369 69.129C14.3336 68.2872 15.2104 67.4044 17.0038 67.4044C17.5274 67.4044 17.9563 67.0004 17.9982 66.4878C17.694 66.4349 17.3639 66.407 17.0038 66.407L16.9549 66.407L16.906 66.407L16.8582 66.4079L16.8103 66.41L16.7634 66.411L16.7165 66.4129L16.6696 66.415L16.6238 66.4179L16.5769 66.4209L16.532 66.4239L16.4861 66.4279L16.4412 66.4319L16.3973 66.4359L16.3525 66.4399L16.3086 66.4449L16.2657 66.4499L16.2218 66.4558L16.2018 66.4588L16.159 66.4648L16.1171 66.4708L16.0742 66.4768L16.0323 66.4838L15.9914 66.4907L15.9505 66.4987L15.9096 66.5057L15.8687 66.5137L15.8288 66.5227L15.7889 66.5307L15.749 66.5396L15.7101 66.5486L15.6712 66.5586L15.6323 66.5675L15.5934 66.5785L15.5555 66.5885L15.5176 66.5985L15.4797 66.6095L15.4418 66.6204L15.4049 66.6314L15.368 66.6434L15.3321 66.6553L15.2952 66.6673L15.2593 66.6793L15.2233 66.6913L15.1874 66.7042L15.1525 66.7172L15.1176 66.7311L15.0827 66.7441L15.0478 66.7581L15.0139 66.772L14.985 66.783L14.9281 66.8079L14.9191 66.8119L14.8623 66.8369L14.8533 66.8409L14.7974 66.8668L14.7885 66.8708L14.7336 66.8977L14.6698 66.9296L14.6059 66.9616L14.5431 66.9955L14.4812 67.0294L14.4204 67.0643L14.3606 67.1002L14.3007 67.1371L14.2788 67.1501L14.2419 67.174L14.2189 67.188L14.183 67.2109L14.1601 67.2269L14.1262 67.2488L14.1022 67.2648L14.0693 67.2877L14.0454 67.3047L14.0124 67.3276L13.9895 67.3436L13.9566 67.3675L13.9336 67.3845L13.9017 67.4074L13.8778 67.4244L13.8469 67.4483L13.8239 67.4662L13.793 67.4892L13.7691 67.5072L13.7392 67.5311L13.7162 67.549L13.6853 67.574L13.6624 67.5919L13.6324 67.6159L13.6095 67.6348L13.5796 67.6588L13.5576 67.6777L13.5277 67.7026L13.5058 67.7216L13.4758 67.7465L13.4539 67.7645L13.425 67.7904L13.403 67.8094L13.3731 67.8353L13.3522 67.8533L13.3013 67.8981L13.2504 67.943L13.2365 67.956L13.1507 68.0338L13.0858 68.0927L13.0509 68.1246L12.9522 68.2163C12.8534 68.3091 12.7537 68.4019 12.6549 68.4946L12.5552 68.5884L12.4614 68.6751L12.3637 68.7649L12.3587 68.7689C12.3308 68.7948 12.3018 68.8208 12.2729 68.8467L12.253 68.8657L12.2161 68.8976L12.1662 68.9415L12.1163 68.9854L12.0664 69.0293L12.0465 69.0462L12.0156 69.0721L11.9936 69.0901L11.9647 69.115L11.9418 69.134L11.9128 69.1569L11.8879 69.1779L11.862 69.1998L11.835 69.2207L11.8091 69.2407L11.7812 69.2636L11.7572 69.2826L11.7263 69.3065L11.7044 69.3235L11.6715 69.3484L11.6505 69.3634L11.6156 69.3893L11.5966 69.4033L11.5597 69.4302L11.5428 69.4432L11.5039 69.4711L11.4879 69.4821L11.446 69.511L11.4321 69.521L11.3892 69.5499L11.3762 69.5589L11.3303 69.5888L11.3193 69.5958L11.2715 69.6267L11.2625 69.6327L11.2116 69.6646L11.2046 69.6696L11.1518 69.7015L11.1458 69.7045L11.087 69.7394L11.0281 69.7733C10.9872 69.7963 10.9453 69.8192 10.9034 69.8412L10.8426 69.8731L10.7787 69.904L10.7757 69.906C10.7578 69.915 10.7389 69.924 10.7209 69.9319L10.7119 69.9359C10.694 69.9449 10.675 69.9539 10.6561 69.9619L10.6471 69.9669C10.6281 69.9748 10.6092 69.9828 10.5902 69.9918L10.5812 69.9958C10.5623 70.0037 10.5433 70.0117 10.5244 70.0197L10.4855 70.0357L10.4516 70.0496L10.4177 70.0626L10.3827 70.0756L10.3488 70.0885L10.3139 70.1015L10.279 70.1135L10.2441 70.1264L10.2082 70.1384L10.1723 70.1504L10.1364 70.1613L10.1005 70.1723L10.0636 70.1833L10.0267 70.1943L9.98977 70.2052L9.95284 70.2152L9.91595 70.2252C9.89002 70.2322 9.86408 70.2381 9.83815 70.2451L9.79824 70.2541L9.75837 70.2641L9.71846 70.273L9.67755 70.281L9.63667 70.29L9.59576 70.298L9.55387 70.306L9.51199 70.313L9.4701 70.32L9.42721 70.3269L9.3853 70.3339L9.34144 70.3399L9.29855 70.3459L9.25465 70.3519L9.21076 70.3568L9.16586 70.3618L9.12099 70.3668L9.07609 70.3708L9.03022 70.3748L8.98435 70.3788L8.93845 70.3818L8.89157 70.3848L8.83471 70.3878L8.78884 70.3908L8.74196 70.3918L8.69609 70.3937L8.6482 70.3947L8.60133 70.3957L8.55445 70.3968Z" fill="#161616"/>
</g>
<defs>
<clipPath id="clip0_3311_301">
<rect width="17" height="40" fill="white" transform="translate(17 40.3934) rotate(-180)"/>
</clipPath>
</defs>
</svg>
