<svg width="17" height="41" viewBox="0 0 17 41" fill="none" xmlns="http://www.w3.org/2000/svg">
<g clip-path="url(#clip0_3311_92)">
<path d="M16.9448 8.8605H16.9926C21.2417 8.8605 21.2418 4.8605 25.4909 4.8605C29.74 4.8605 29.74 8.8605 33.9891 8.8605V-25.2285C29.74 -25.2285 29.74 -29.2285 25.4909 -29.2285C21.2587 -29.2285 21.2418 -25.2595 17.0425 -25.2285H16.9926C14.9349 -25.2285 13.8737 -26.1665 12.8433 -27.1345L12.6438 -27.3215C11.6144 -28.2895 10.5531 -29.2285 8.49442 -29.2285C6.4367 -29.2285 5.37541 -28.2895 4.34505 -27.3215L4.14558 -27.1345C3.11622 -26.1665 2.05494 -25.2285 -0.0037899 -25.2285C-4.2529 -25.2285 -4.25292 -29.2285 -8.50203 -29.2285C-12.7511 -29.2285 -12.7511 -25.2285 -17.0002 -25.2285V8.8605C-12.7511 8.8605 -12.7511 4.8605 -8.50203 4.8605C-4.26988 4.8605 -4.25292 8.82951 -0.0536804 8.8605H-0.0037899C4.24532 8.8605 4.24531 4.8605 8.49442 4.8605C10.5531 4.8605 11.6144 5.79949 12.6438 6.76749L12.8433 6.9545C13.8647 7.9145 14.918 8.8465 16.9448 8.8605Z" fill="#3139FB"/>
<path fill-rule="evenodd" clip-rule="evenodd" d="M16.9438 8.38181H16.8939L16.845 8.38081L16.7962 8.3788L16.7483 8.37782L16.7004 8.37581L16.6535 8.37283L16.6066 8.37082L16.5598 8.36784L16.5139 8.36385L16.468 8.36087L16.4221 8.35685L16.3773 8.35189L16.3324 8.3479L16.2875 8.34291L16.2436 8.33691L16.1867 8.32994L16.1448 8.32394L16.1029 8.31798L16.062 8.31198L16.0211 8.30501L15.9813 8.29801L15.9433 8.29104C15.8885 8.28106 15.8336 8.27007 15.7808 8.2581L15.7399 8.24915L15.7 8.24017L15.6601 8.23019L15.6212 8.22121L15.5823 8.21025L15.5434 8.20027L15.5045 8.18928L15.4666 8.17832L15.4287 8.16736L15.3908 8.15638L15.3539 8.14441L15.301 8.12746L15.2661 8.11549L15.2312 8.1035L15.1963 8.09154L15.1613 8.07857L15.1274 8.06561L15.0935 8.05264L15.0596 8.03967L15.0257 8.0267L14.9948 8.01373L14.9559 7.99778L14.926 7.98482L14.892 7.96984C14.8731 7.96186 14.8531 7.95292 14.8342 7.94394L14.8262 7.94092C14.8082 7.93195 14.7893 7.92397 14.7713 7.91499L14.7614 7.91L14.7015 7.88108L14.6776 7.86912L14.6606 7.86014L14.6397 7.85015L14.6138 7.83621L14.5958 7.82723L14.5778 7.81825L14.5509 7.80328L14.532 7.79332L14.517 7.78532L14.4881 7.76836L14.4572 7.75141L14.4083 7.72349L14.3973 7.71749L14.3464 7.68757L14.3395 7.68258L14.2816 7.64669L14.2258 7.61279C14.1869 7.58685 14.1479 7.56189 14.109 7.53595L14.0552 7.49906L14.0003 7.46117L13.9465 7.42226L13.8926 7.38336L13.8387 7.34346L13.7859 7.30257L13.734 7.26267L13.717 7.2497L13.6821 7.22078L13.6632 7.20681L13.6303 7.17987L13.6103 7.16292L13.5794 7.13799L13.5565 7.12003L13.5285 7.0961L13.5046 7.07613L13.4777 7.05322L13.4517 7.03127L13.4278 7.01032L13.3999 6.98637L13.3779 6.96743L13.348 6.9415L13.3281 6.92455L13.2792 6.88065L13.2293 6.83676L13.2213 6.82979C13.1934 6.80385 13.1655 6.7789 13.1385 6.75396L13.1325 6.74897L13.0747 6.69613L13.0358 6.6592L12.941 6.57245C12.9081 6.54153 12.8762 6.5116 12.8433 6.48067L12.6438 6.29414L12.5461 6.2024L12.4473 6.11062L12.4124 6.07772L12.3476 6.01985L12.2618 5.94205L12.2269 5.91014L12.197 5.88321L12.1461 5.83931L12.1251 5.82035L12.0952 5.79441L12.0733 5.77649L12.0443 5.75055L12.0224 5.73159L11.9925 5.70666L11.9705 5.68769L11.9406 5.66377L11.9187 5.64481L11.8888 5.61987L11.8658 5.60192L11.8359 5.57698L11.8129 5.55902L11.782 5.5351L11.7591 5.51714L11.7292 5.49322L11.7052 5.47526L11.6743 5.4513L11.6514 5.43435L11.6204 5.41042L11.5965 5.39347L11.5646 5.36951L11.5416 5.35255L11.5087 5.32963L11.4858 5.31268L11.4529 5.28973L11.4289 5.27378L11.396 5.25082L11.3721 5.23487L11.3382 5.21193L11.3152 5.19695L11.2793 5.17403L11.2564 5.15905L11.2194 5.13613L11.1975 5.12216L11.1377 5.08624L11.0778 5.05035L11.017 5.01543L10.9551 4.98052L10.8923 4.94759L10.8285 4.91468L10.7646 4.88278L10.7098 4.85685L10.7008 4.85283L10.6449 4.82692L10.636 4.82193L10.5791 4.79697L10.5701 4.79298L10.5132 4.76906L10.4843 4.7571L10.4504 4.74312L10.4155 4.73016L10.3806 4.71619L10.3457 4.70322L10.3108 4.69025L10.2749 4.67728L10.239 4.66532L10.2031 4.65235L10.1661 4.64039L10.1303 4.62843L10.0933 4.61744L10.0564 4.60648L10.0185 4.59549L9.98062 4.58453L9.94272 4.57354L9.90482 4.56359L9.86592 4.55361L9.82702 4.54362L9.78812 4.53464L9.74922 4.52569L9.70931 4.51672L9.66943 4.50774L9.62953 4.49976L9.58865 4.49175L9.54774 4.48378L9.50686 4.47681L9.46595 4.46984L9.42406 4.46284L9.38117 4.45586L9.33929 4.44987L9.2964 4.4439L9.25351 4.4379L9.20961 4.43291L9.18964 4.43093L9.14578 4.42594L9.10088 4.42095L9.05699 4.41697L9.01212 4.41298L8.96622 4.40996L8.92135 4.40598L8.87447 4.40299L8.82857 4.40101L8.78169 4.39901L8.73482 4.397L8.68794 4.39502L8.64006 4.39401L8.59218 4.39301L8.54332 4.39203H8.49444C4.24532 4.39203 4.24534 8.38181 -0.00377667 8.38181H-0.0536671C-0.39579 8.37981 -0.709967 8.35089 -1.00122 8.30002V8.38181C-1.00122 8.9334 -0.554366 9.37925 -0.00377667 9.37925C2.45293 9.37925 3.69971 8.26711 4.92856 7.11406C5.82427 6.27222 6.70203 5.38948 8.49444 5.38948C10.2878 5.38948 11.1646 6.27222 12.0613 7.11406C13.2891 8.26711 14.5359 9.37925 16.9926 9.37925C17.5432 9.37925 17.9901 8.9334 17.9901 8.38181V8.30002C17.6849 8.35288 17.3547 8.38181 16.9926 8.38181H16.9438ZM8.44555 -29.6099H8.49444H8.5443L8.59318 -29.6089L8.64207 -29.6078L8.69092 -29.6068L8.7388 -29.6049L8.78669 -29.6029L8.83356 -29.6009L8.88044 -29.5979L8.92732 -29.5949L8.97322 -29.5919L9.01909 -29.5879L9.06496 -29.5839L9.10986 -29.5799L9.15473 -29.5749L9.19963 -29.5699L9.24352 -29.565L9.28742 -29.559L9.33031 -29.553L9.37417 -29.547L9.41706 -29.54L9.45897 -29.5331L9.50086 -29.5261L9.55373 -29.5171L9.59361 -29.5091L9.63352 -29.5011L9.67342 -29.4932L9.71232 -29.4852L9.75122 -29.4762L9.79013 -29.4672L9.82702 -29.4582C9.85295 -29.4513 9.87889 -29.4453 9.90482 -29.4383L9.94372 -29.4273L9.98263 -29.4173L10.0205 -29.4064L10.0584 -29.3954L10.0963 -29.3834L10.1332 -29.3715L10.1711 -29.3605L10.2071 -29.3475L10.2439 -29.3355L10.2799 -29.3226L10.3168 -29.3096L10.3517 -29.2967L10.3876 -29.2827L10.4225 -29.2697L10.4574 -29.2558L10.4923 -29.2418L10.5132 -29.2328C10.5322 -29.2248 10.5512 -29.2169 10.5701 -29.2089L10.5791 -29.2049C10.598 -29.1959 10.617 -29.1879 10.636 -29.18L10.6449 -29.175C10.6639 -29.167 10.6828 -29.158 10.7008 -29.149L10.7098 -29.145C10.7277 -29.1371 10.7467 -29.1281 10.7646 -29.1191L10.7686 -29.1171L10.8314 -29.0862L10.8923 -29.0543C10.9342 -29.0323 10.9761 -29.0094 11.017 -28.9865L11.0758 -28.9525L11.1347 -28.9176L11.1935 -28.8827L11.2514 -28.8458L11.3082 -28.8089L11.3651 -28.772L11.378 -28.763L11.4209 -28.7341L11.4359 -28.7241L11.4768 -28.6952L11.4928 -28.6842L11.5317 -28.6563L11.5486 -28.6433L11.5855 -28.6164L11.6055 -28.6024L11.6394 -28.5765L11.6603 -28.5615L11.6932 -28.5366L11.7152 -28.5196L11.7461 -28.4957L11.77 -28.4767L11.799 -28.4538L11.8239 -28.4339L11.8508 -28.4129L11.8768 -28.391L11.9017 -28.37L11.9306 -28.3471L11.9536 -28.3281L11.9835 -28.3032L12.0045 -28.2852L12.0353 -28.2593L12.0553 -28.2424L12.0872 -28.2144L12.1052 -28.1985L12.1391 -28.1695L12.1551 -28.1546L12.2049 -28.1107L12.2548 -28.0668L12.2618 -28.0598C12.2907 -28.0339 12.3196 -28.0079 12.3476 -27.982L12.3526 -27.978L12.4443 -27.8943L12.4503 -27.8883L12.547 -27.7985L12.6438 -27.7077L12.8433 -27.5212L12.941 -27.4294L13.0398 -27.3377L13.0757 -27.3058L13.1395 -27.2469L13.2253 -27.1691L13.2602 -27.1372L13.2902 -27.1113L13.341 -27.0664L13.362 -27.0484L13.3919 -27.0225L13.4138 -27.0035L13.4428 -26.9776L13.4647 -26.9596L13.4946 -26.9347L13.5166 -26.9157L13.5465 -26.8908L13.5694 -26.8719L13.5994 -26.8479L13.6213 -26.829L13.6512 -26.805L13.6742 -26.7871L13.7051 -26.7621L13.728 -26.7442L13.758 -26.7203L13.7819 -26.7023L13.8128 -26.6793L13.8358 -26.6614L13.8667 -26.6375L13.8906 -26.6205L13.9225 -26.5976L13.9455 -26.5806L13.9784 -26.5567L14.0013 -26.5407L14.0343 -26.5178L14.0582 -26.5008L14.0911 -26.4779L14.115 -26.4619L14.149 -26.44L14.1729 -26.424L14.2078 -26.4011L14.2307 -26.3871L14.2676 -26.3632L14.2896 -26.3502L14.3494 -26.3133L14.4093 -26.2774L14.4701 -26.2425L14.532 -26.2086L14.5948 -26.1747L14.6586 -26.1427L14.7225 -26.1108L14.7773 -26.0839L14.7863 -26.0799L14.8422 -26.054L14.8512 -26.05L14.908 -26.025L14.917 -26.021L14.9738 -25.9961L15.0028 -25.9851L15.0367 -25.9712L15.0716 -25.9572L15.1065 -25.9442L15.1414 -25.9303L15.1763 -25.9173L15.2122 -25.9044L15.2481 -25.8924L15.284 -25.8804L15.3209 -25.8684L15.3569 -25.8565L15.3937 -25.8445L15.4307 -25.8335L15.4686 -25.8226L15.5065 -25.8116L15.5444 -25.8016L15.5823 -25.7916L15.6212 -25.7806L15.6601 -25.7717L15.699 -25.7617L15.7379 -25.7527L15.7778 -25.7438L15.8177 -25.7358L15.8576 -25.7268L15.8985 -25.7188L15.9393 -25.7118L15.9803 -25.7038L16.0221 -25.6969L16.0631 -25.6899L16.1059 -25.6839L16.1478 -25.6779L16.1907 -25.6719L16.2336 -25.666L16.2775 -25.661L16.2974 -25.658L16.3413 -25.653L16.3862 -25.649L16.4301 -25.645L16.476 -25.641L16.5209 -25.637L16.5667 -25.634L16.6126 -25.631L16.6585 -25.6281L16.7054 -25.626L16.7523 -25.6241L16.7991 -25.6231L16.847 -25.6211L16.8949 -25.6201H16.9438H16.9926H17.0425C17.3837 -25.6221 17.6969 -25.651 17.9871 -25.7009C17.9452 -26.2136 17.5163 -26.6175 16.9926 -26.6175C15.2002 -26.6175 14.3225 -27.5003 13.4268 -28.3421C12.198 -29.4952 10.9511 -30.6073 8.49444 -30.6073C6.03773 -30.6073 4.79093 -29.4952 3.56307 -28.3421C2.66637 -27.5003 1.78963 -26.6175 -0.00377667 -26.6175C-0.527435 -26.6175 -0.956345 -26.2136 -0.998238 -25.7009C-0.694017 -25.648 -0.363854 -25.6201 -0.00377667 -25.6201H0.0450789H0.0939648L0.141846 -25.6211L0.189728 -25.6231L0.236605 -25.6241L0.283482 -25.626L0.330359 -25.6281L0.376231 -25.631L0.423108 -25.634L0.468006 -25.637L0.513879 -25.641L0.558777 -25.645L0.602671 -25.649L0.647539 -25.653L0.691433 -25.658L0.734322 -25.663L0.778216 -25.6689L0.798154 -25.6719L0.841043 -25.6779L0.882928 -25.6839L0.925817 -25.6899L0.967733 -25.6969L1.00861 -25.7038L1.04952 -25.7118L1.0904 -25.7188L1.13132 -25.7268L1.17119 -25.7358L1.2111 -25.7438L1.251 -25.7527L1.28991 -25.7617L1.32881 -25.7717L1.36771 -25.7806L1.40661 -25.7916L1.44451 -25.8016L1.48241 -25.8116L1.5203 -25.8226L1.5582 -25.8335L1.59512 -25.8445L1.63202 -25.8565L1.66793 -25.8684L1.70483 -25.8804L1.74075 -25.8924L1.77666 -25.9044L1.81255 -25.9173L1.84747 -25.9303L1.88238 -25.9442L1.9173 -25.9572L1.95221 -25.9712L1.98612 -25.9851L2.01504 -25.9961L2.0719 -26.021L2.08088 -26.025L2.13774 -26.05L2.14672 -26.054L2.20258 -26.0799L2.21152 -26.0839L2.26641 -26.1108L2.33024 -26.1427L2.39407 -26.1747L2.4569 -26.2086L2.51875 -26.2425L2.5796 -26.2774L2.63944 -26.3133L2.69929 -26.3502L2.72124 -26.3632L2.75813 -26.3871L2.78108 -26.4011L2.817 -26.424L2.83992 -26.44L2.87383 -26.4619L2.89778 -26.4779L2.93069 -26.5008L2.95465 -26.5178L2.98755 -26.5407L3.0105 -26.5567L3.04341 -26.5806L3.06636 -26.5976L3.09826 -26.6205L3.12222 -26.6375L3.15311 -26.6614L3.17606 -26.6793L3.20699 -26.7023L3.23092 -26.7203L3.26084 -26.7442L3.28379 -26.7621L3.31472 -26.7871L3.33764 -26.805L3.36759 -26.829L3.39051 -26.8479L3.42043 -26.8719L3.44238 -26.8908L3.4723 -26.9157L3.49425 -26.9347L3.52417 -26.9596L3.54612 -26.9776L3.57503 -27.0035L3.59698 -27.0225L3.6269 -27.0484L3.64785 -27.0664L3.69874 -27.1113L3.74961 -27.1561L3.76355 -27.1691L3.84933 -27.2469L3.91416 -27.3058L3.94908 -27.3377L4.04782 -27.4294C4.14657 -27.5222 4.24632 -27.615 4.34506 -27.7077L4.44482 -27.8015L4.53857 -27.8883L4.63631 -27.978L4.6413 -27.982C4.66923 -28.0079 4.69816 -28.0339 4.72708 -28.0598L4.74705 -28.0788L4.78394 -28.1107L4.8338 -28.1546L4.88369 -28.1985L4.93355 -28.2424L4.95352 -28.2593L4.98442 -28.2852L5.00636 -28.3032L5.03531 -28.3281L5.05823 -28.3471L5.08718 -28.37L5.11211 -28.391L5.13805 -28.4129L5.16495 -28.4339L5.19089 -28.4538L5.21883 -28.4767L5.24276 -28.4957L5.27368 -28.5196L5.29563 -28.5366L5.32854 -28.5615L5.34951 -28.5765L5.38439 -28.6024L5.40336 -28.6164L5.44025 -28.6433L5.45721 -28.6563L5.49611 -28.6842L5.51209 -28.6952L5.55397 -28.7241L5.56794 -28.7341L5.61083 -28.763L5.6238 -28.772L5.66967 -28.8019L5.68066 -28.8089L5.72851 -28.8398L5.73749 -28.8458L5.78836 -28.8777L5.79536 -28.8827L5.84823 -28.9146L5.8542 -28.9176L5.91304 -28.9525L5.97191 -28.9865C6.0128 -29.0094 6.0547 -29.0323 6.09659 -29.0543L6.15744 -29.0862L6.22127 -29.1171L6.22425 -29.1191C6.24221 -29.1281 6.26115 -29.1371 6.2791 -29.145L6.28808 -29.149C6.30604 -29.158 6.32499 -29.167 6.34394 -29.175L6.35292 -29.18C6.37187 -29.1879 6.39083 -29.1959 6.40978 -29.2049L6.41876 -29.2089C6.43771 -29.2169 6.45667 -29.2248 6.47562 -29.2328L6.51452 -29.2488L6.54843 -29.2627L6.58234 -29.2757L6.61726 -29.2887L6.65117 -29.3016L6.68608 -29.3146L6.721 -29.3266L6.75588 -29.3396L6.7918 -29.3515L6.82772 -29.3635L6.86361 -29.3744L6.89952 -29.3854L6.93642 -29.3964L6.97334 -29.4074L7.01023 -29.4183L7.04716 -29.4283L7.08405 -29.4383C7.10998 -29.4453 7.13592 -29.4513 7.16185 -29.4582L7.20176 -29.4672L7.24163 -29.4772L7.28154 -29.4861L7.32245 -29.4942L7.36333 -29.5031L7.40424 -29.5111L7.44613 -29.5191L7.48801 -29.5261L7.5299 -29.5331L7.57279 -29.54L7.6147 -29.547L7.65856 -29.553L7.70145 -29.559L7.74535 -29.565L7.78924 -29.5699L7.83414 -29.5749L7.87901 -29.5799L7.92391 -29.5839L7.96978 -29.5879L8.01565 -29.5919L8.06155 -29.5949L8.10843 -29.5979L8.16529 -29.6009L8.21116 -29.6039L8.25804 -29.6049L8.30391 -29.6068L8.3518 -29.6078L8.39867 -29.6089L8.44555 -29.6099Z" fill="#5057FF"/>
</g>
<defs>
<clipPath id="clip0_3311_92">
<rect width="17" height="40" fill="white" transform="translate(0 0.393433)"/>
</clipPath>
</defs>
</svg>
