<?xml version="1.0" encoding="utf-8"?>
<!-- Generator: Adobe Illustrator 26.0.1, SVG Export Plug-In . SVG Version: 6.00 Build 0)  -->
<svg version="1.1" id="Calque_1" xmlns="http://www.w3.org/2000/svg" xmlns:xlink="http://www.w3.org/1999/xlink" x="0px" y="0px"
	 viewBox="0 0 17 41" style="enable-background:new 0 0 17 41;" xml:space="preserve">
<style type="text/css">
	.st0{clip-path:url(#SVGID_00000124158658599178894600000014227229198140525995_);}
	.st1{fill:#3139FB;}
	.st2{fill-rule:evenodd;clip-rule:evenodd;fill:#5057FF;}
	.st3{fill:#FFFFFF;}
</style>
<g>
	<defs>
		<rect id="SVGID_1_" width="17" height="40"/>
	</defs>
	<clipPath id="SVGID_00000060025778489374604660000010736512994430095546_">
		<use xlink:href="#SVGID_1_"  style="overflow:visible;"/>
	</clipPath>
	<g style="clip-path:url(#SVGID_00000060025778489374604660000010736512994430095546_);">
		<path class="st1" d="M16.9,8.5L16.9,8.5c4.3,0,4.3-4,8.5-4s4.2,4,8.5,4v-34.1c-4.2,0-4.2-4-8.5-4c-4.2,0-4.2,4-8.4,4h0
			c-2.1,0-3.1-0.9-4.1-1.9l-0.2-0.2c-1-1-2.1-1.9-4.1-1.9c-2.1,0-3.1,0.9-4.1,1.9l-0.2,0.2c-1,1-2.1,1.9-4.1,1.9c-4.2,0-4.2-4-8.5-4
			c-4.2,0-4.2,4-8.5,4V8.5c4.2,0,4.2-4,8.5-4c4.2,0,4.2,4,8.4,4h0c4.2,0,4.2-4,8.5-4c2.1,0,3.1,0.9,4.1,1.9l0.2,0.2
			C13.9,7.5,14.9,8.5,16.9,8.5z"/>
		<path class="st2" d="M8.4-30L8.4-30L8.4-30l0.1,0l0,0l0,0l0,0l0,0l0,0l0,0l0,0l0,0l0,0l0,0l0,0l0,0l0,0l0,0l0,0l0,0l0,0l0,0l0,0
			l0,0l0.1,0l0,0l0,0l0,0l0,0l0,0l0,0l0,0c0,0,0.1,0,0.1,0l0,0l0,0l0,0l0,0l0,0l0,0l0,0l0,0l0,0l0,0l0,0l0,0l0,0l0,0l0,0l0,0l0,0
			c0,0,0,0,0.1,0l0,0c0,0,0,0,0.1,0l0,0c0,0,0,0,0.1,0l0,0c0,0,0,0,0.1,0l0,0l0.1,0l0.1,0c0,0,0.1,0,0.1,0.1l0.1,0l0.1,0l0.1,0
			l0.1,0l0.1,0l0.1,0l0,0l0,0l0,0l0,0l0,0l0,0l0,0l0,0l0,0l0,0l0,0l0,0l0,0l0,0l0,0l0,0l0,0l0,0l0,0l0,0l0,0l0,0l0,0l0,0l0,0l0,0
			l0,0l0,0l0,0l0,0l0,0l0,0l0,0c0,0,0.1,0.1,0.1,0.1l0,0l0.1,0.1l0,0l0.1,0.1l0.1,0.1l0.2,0.2l0.1,0.1l0.1,0.1l0,0l0.1,0.1l0.1,0.1
			l0,0l0,0l0.1,0l0,0l0,0l0,0l0,0l0,0l0,0l0,0l0,0l0,0l0,0l0,0l0,0l0,0l0,0l0,0l0,0l0,0l0,0l0,0l0,0l0,0l0,0l0,0l0,0l0,0l0,0l0,0
			l0,0l0,0l0,0l0,0l0,0l0,0l0,0l0,0l0.1,0l0.1,0l0.1,0l0.1,0l0.1,0l0.1,0l0.1,0l0.1,0l0,0l0.1,0l0,0l0.1,0l0,0l0.1,0l0,0l0,0l0,0
			l0,0l0,0l0,0l0,0l0,0l0,0l0,0l0,0l0,0l0,0l0,0l0,0l0,0l0,0l0,0l0,0l0,0l0,0l0,0l0,0l0,0l0,0l0,0l0,0l0,0l0,0l0,0l0,0l0,0l0,0l0,0
			l0,0l0,0l0,0l0,0l0,0l0,0l0,0l0,0l0,0l0,0l0,0l0,0l0,0l0,0h0h0h0c0.3,0,0.7,0,0.9-0.1c0-0.5-0.5-0.9-1-0.9c-1.8,0-2.7-0.9-3.6-1.7
			C12.2-29.9,11-31,8.5-31c-2.5,0-3.7,1.1-4.9,2.3C2.7-27.9,1.8-27,0-27c-0.5,0-1,0.4-1,0.9C-0.7-26-0.4-26,0-26h0h0l0,0l0,0l0,0
			l0,0l0,0l0,0l0,0l0,0l0,0l0,0l0,0l0,0l0,0l0,0l0,0l0,0l0,0l0,0l0,0l0,0l0,0l0,0l0,0l0,0l0,0l0,0l0,0l0,0l0,0l0,0l0,0l0,0l0,0l0,0
			l0,0l0,0l0,0l0,0l0,0l0,0l0,0l0,0l0,0l0,0l0,0l0,0l0,0l0,0l0.1,0l0,0l0.1,0l0,0l0.1,0l0,0l0.1,0l0.1,0l0.1,0l0.1,0l0.1,0l0.1,0
			l0.1,0l0.1,0l0,0l0,0l0,0l0,0l0,0l0,0l0,0l0,0l0,0l0,0l0,0l0,0l0,0l0,0l0,0l0,0l0,0l0,0l0,0l0,0l0,0l0,0l0,0l0,0l0,0l0,0l0,0l0,0
			l0,0l0,0l0,0l0,0l0,0l0,0l0,0l0.1,0l0.1,0l0,0l0.1-0.1l0.1-0.1l0,0L4-27.8c0.1-0.1,0.2-0.2,0.3-0.3l0.1-0.1l0.1-0.1l0.1-0.1l0,0
			c0,0,0.1-0.1,0.1-0.1l0,0l0,0l0,0l0,0l0,0l0,0l0,0l0,0l0,0l0,0l0,0l0,0l0,0l0,0l0,0l0,0l0,0l0,0l0,0l0,0l0,0l0,0l0,0l0,0l0,0l0,0
			l0,0l0,0l0,0l0,0l0,0l0,0l0,0l0,0l0,0l0.1,0l0,0l0.1,0l0,0l0.1,0l0.1,0c0,0,0.1,0,0.1-0.1l0.1,0l0.1,0l0,0c0,0,0,0,0.1,0l0,0
			c0,0,0,0,0.1,0l0,0c0,0,0,0,0.1,0l0,0c0,0,0,0,0.1,0l0,0l0,0l0,0l0,0l0,0l0,0l0,0l0,0l0,0l0,0l0,0l0,0l0,0l0,0l0,0l0,0l0,0
			c0,0,0.1,0,0.1,0l0,0l0,0l0,0l0,0l0,0l0,0l0,0l0,0l0,0l0,0l0,0l0,0l0,0l0,0l0,0l0,0l0,0l0,0l0,0l0,0l0,0l0,0l0.1,0l0,0l0,0l0,0
			L8.4-30L8.4-30L8.4-30z"/>
	</g>
</g>
<rect y="11.3" class="st3" width="17" height="29.7"/>
</svg>
