<svg width="180" height="180" viewBox="0 0 180 180" fill="none" xmlns="http://www.w3.org/2000/svg">
<g clip-path="url(#clip0_3311_222)">
<path d="M179.991 153.615C179.847 148.954 178.393 144.426 175.794 140.551L140.067 86.7634L164.485 49.3466L164.695 49.0256V49.0049L164.708 48.9867L171.146 39.0422C173.604 35.2619 174.988 30.8859 175.148 26.3818C175.28 22.1607 174.34 17.9748 172.417 14.2133C170.494 10.4544 167.653 7.23993 164.156 4.86689C160.473 2.38115 156.19 0.928964 151.752 0.662283C151.355 0.628625 150.974 0.613091 150.577 0.613091L24.9843 0.527653C21.6892 0.515962 18.4248 1.16022 15.3821 2.42273C12.3394 3.68525 9.57946 5.54069 7.26366 7.88053C4.93304 10.207 3.0904 12.9739 1.84341 16.0195C0.596425 19.065 -0.0298825 22.3281 0.00109548 25.618L0.504288 98.1112L0.626203 115.737L0.662504 115.717L0.89595 154.433C0.909763 157.693 1.56776 160.917 2.83225 163.922C4.09675 166.927 5.94287 169.654 8.26485 171.945C10.5732 174.249 13.3144 176.075 16.3312 177.319C19.3481 178.563 22.5813 179.201 25.8454 179.195L60.3634 179.218L77.5912 179.231L130.408 179.267H148.518H155.002C159.676 179.283 164.261 177.986 168.231 175.524C171.933 173.208 174.965 169.966 177.026 166.12C179.088 162.28 180.11 157.97 179.991 153.615Z" fill="white"/>
<path d="M167.157 146.265L127.713 87.1L92.9956 139.916L125.324 167.021C126.754 168.221 128.561 168.88 130.429 168.883L155.015 168.898C166.654 168.906 173.623 155.948 167.157 146.265Z" fill="#FF9999"/>
<path d="M162.431 33.4085L156.003 43.3452L155.791 43.6715L92.9826 139.916L39.0322 94.6885C38.472 94.2194 38.021 93.6341 37.7104 92.9734C37.3998 92.3127 37.2372 91.5924 37.2337 90.8625C37.2303 90.1327 37.3861 89.4109 37.6904 88.7473C37.9947 88.0836 38.4402 87.4941 38.9959 87.0198L55.9773 72.5211L92.0307 52.1299L153.765 17.1907C154.167 16.6339 154.416 15.9818 154.488 15.2991C154.559 14.6165 154.451 13.927 154.174 13.2991C153.896 12.6711 153.459 12.1265 152.905 11.7192C152.352 11.3119 151.701 11.0561 151.018 10.9771C162.065 11.5699 168.542 23.9585 162.431 33.4085Z" fill="#FF5060"/>
<path d="M80.8075 162.615L30.5817 92.7778C29.9637 91.9221 29.6312 90.894 29.6312 89.8392C29.6312 88.7844 29.9637 87.7563 30.5817 86.9007L10.869 98.018L11.2607 154.348C11.2874 158.191 12.8349 161.868 15.5659 164.577C18.2969 167.286 21.99 168.807 25.8402 168.81L77.586 168.846C78.3126 168.849 79.0259 168.651 79.6472 168.275C80.2684 167.899 80.7735 167.359 81.1067 166.714C81.4399 166.07 81.5883 165.346 81.5355 164.622C81.4827 163.899 81.2307 163.204 80.8075 162.615Z" fill="#2404AA"/>
<path d="M153.765 17.1907L92.0489 52.1195L55.9954 72.5108L10.8872 98.018L10.384 25.5249C10.371 23.6031 10.7391 21.6978 11.4671 19.9187C12.1951 18.1396 13.2686 16.5219 14.6258 15.1588C15.9829 13.7957 17.5969 12.7141 19.3747 11.9764C21.1525 11.2387 23.059 10.8595 24.9843 10.8605L150.191 10.946C150.45 10.946 150.723 10.946 150.987 10.9667H151.023C151.708 11.0455 152.36 11.3017 152.914 11.71C153.468 12.1182 153.906 12.6642 154.183 13.2937C154.46 13.9231 154.568 14.6141 154.494 15.2978C154.421 15.9815 154.17 16.6341 153.765 17.1907Z" fill="#0034FE"/>
</g>
<defs>
<clipPath id="clip0_3311_222">
<rect width="180" height="180" fill="white"/>
</clipPath>
</defs>
</svg>
